<mxfile host="app.diagrams.net" modified="2022-11-18T10:06:21.012Z" agent="5.0 (Windows NT 10.0; Win64; x64) AppleWebKit/537.36 (KHTML, like Gecko) Chrome/105.0.0.0 Safari/537.36" etag="lLGWBHHGaMiAagN4IPC_" version="20.5.3" type="github">
  <diagram id="ZUiHmfUSENHZMwyCR4Ub" name="第 1 页">
    <mxGraphModel dx="629" dy="597" grid="1" gridSize="10" guides="1" tooltips="1" connect="1" arrows="1" fold="1" page="1" pageScale="1" pageWidth="827" pageHeight="1169" math="0" shadow="0">
      <root>
        <mxCell id="0" />
        <mxCell id="1" parent="0" />
        <mxCell id="im7Ak8WgIniADITlttS4-9" style="edgeStyle=orthogonalEdgeStyle;rounded=0;orthogonalLoop=1;jettySize=auto;html=1;exitX=0.5;exitY=1;exitDx=0;exitDy=0;entryX=0.5;entryY=0;entryDx=0;entryDy=0;entryPerimeter=0;" edge="1" parent="1" source="im7Ak8WgIniADITlttS4-2" target="im7Ak8WgIniADITlttS4-4">
          <mxGeometry relative="1" as="geometry" />
        </mxCell>
        <mxCell id="im7Ak8WgIniADITlttS4-2" value="接收文件读写请求" style="rounded=0;whiteSpace=wrap;html=1;" vertex="1" parent="1">
          <mxGeometry x="240" y="240" width="120" height="40" as="geometry" />
        </mxCell>
        <mxCell id="im7Ak8WgIniADITlttS4-8" style="edgeStyle=orthogonalEdgeStyle;rounded=0;orthogonalLoop=1;jettySize=auto;html=1;exitX=0.5;exitY=1;exitDx=0;exitDy=0;exitPerimeter=0;entryX=0.5;entryY=0;entryDx=0;entryDy=0;" edge="1" parent="1" source="im7Ak8WgIniADITlttS4-4" target="im7Ak8WgIniADITlttS4-7">
          <mxGeometry relative="1" as="geometry" />
        </mxCell>
        <mxCell id="im7Ak8WgIniADITlttS4-13" value="否" style="edgeLabel;html=1;align=center;verticalAlign=middle;resizable=0;points=[];" vertex="1" connectable="0" parent="im7Ak8WgIniADITlttS4-8">
          <mxGeometry x="-0.2338" y="2" relative="1" as="geometry">
            <mxPoint as="offset" />
          </mxGeometry>
        </mxCell>
        <mxCell id="im7Ak8WgIniADITlttS4-10" value="是" style="edgeStyle=orthogonalEdgeStyle;rounded=0;orthogonalLoop=1;jettySize=auto;html=1;exitX=1;exitY=0.5;exitDx=0;exitDy=0;exitPerimeter=0;entryX=0;entryY=0.5;entryDx=0;entryDy=0;" edge="1" parent="1" source="im7Ak8WgIniADITlttS4-4" target="im7Ak8WgIniADITlttS4-5">
          <mxGeometry relative="1" as="geometry" />
        </mxCell>
        <mxCell id="im7Ak8WgIniADITlttS4-4" value="页缓存打开?" style="strokeWidth=2;html=1;shape=mxgraph.flowchart.decision;whiteSpace=wrap;" vertex="1" parent="1">
          <mxGeometry x="243.75" y="320" width="112.5" height="50" as="geometry" />
        </mxCell>
        <mxCell id="im7Ak8WgIniADITlttS4-11" style="edgeStyle=orthogonalEdgeStyle;rounded=0;orthogonalLoop=1;jettySize=auto;html=1;exitX=0.5;exitY=1;exitDx=0;exitDy=0;entryX=0.5;entryY=0;entryDx=0;entryDy=0;" edge="1" parent="1" source="im7Ak8WgIniADITlttS4-5" target="im7Ak8WgIniADITlttS4-6">
          <mxGeometry relative="1" as="geometry" />
        </mxCell>
        <mxCell id="im7Ak8WgIniADITlttS4-5" value="切分请求" style="rounded=0;whiteSpace=wrap;html=1;" vertex="1" parent="1">
          <mxGeometry x="390" y="325" width="120" height="40" as="geometry" />
        </mxCell>
        <mxCell id="im7Ak8WgIniADITlttS4-12" style="edgeStyle=orthogonalEdgeStyle;rounded=0;orthogonalLoop=1;jettySize=auto;html=1;exitX=0.5;exitY=1;exitDx=0;exitDy=0;entryX=0.75;entryY=0;entryDx=0;entryDy=0;" edge="1" parent="1" source="im7Ak8WgIniADITlttS4-6" target="im7Ak8WgIniADITlttS4-7">
          <mxGeometry relative="1" as="geometry" />
        </mxCell>
        <mxCell id="im7Ak8WgIniADITlttS4-6" value="操作/更新页缓存" style="rounded=0;whiteSpace=wrap;html=1;" vertex="1" parent="1">
          <mxGeometry x="390" y="390" width="120" height="40" as="geometry" />
        </mxCell>
        <mxCell id="im7Ak8WgIniADITlttS4-7" value="填充返回内容" style="rounded=0;whiteSpace=wrap;html=1;" vertex="1" parent="1">
          <mxGeometry x="240" y="480" width="120" height="40" as="geometry" />
        </mxCell>
        <mxCell id="im7Ak8WgIniADITlttS4-14" value="" style="strokeWidth=1;html=1;shape=mxgraph.flowchart.annotation_2;align=left;labelPosition=right;pointerEvents=1;rotation=-180;" vertex="1" parent="1">
          <mxGeometry x="530" y="325" width="19" height="105" as="geometry" />
        </mxCell>
        <mxCell id="im7Ak8WgIniADITlttS4-15" value="页缓存处理逻辑" style="text;html=1;strokeColor=none;fillColor=none;align=center;verticalAlign=middle;whiteSpace=wrap;rounded=0;strokeWidth=1;" vertex="1" parent="1">
          <mxGeometry x="549" y="362.5" width="90" height="30" as="geometry" />
        </mxCell>
        <mxCell id="im7Ak8WgIniADITlttS4-16" value="" style="strokeWidth=1;html=1;shape=mxgraph.flowchart.annotation_2;align=left;labelPosition=right;pointerEvents=1;rotation=0;" vertex="1" parent="1">
          <mxGeometry x="200" y="240" width="20" height="280" as="geometry" />
        </mxCell>
        <mxCell id="im7Ak8WgIniADITlttS4-17" value="通常逻辑" style="text;html=1;strokeColor=none;fillColor=none;align=center;verticalAlign=middle;whiteSpace=wrap;rounded=0;strokeWidth=1;" vertex="1" parent="1">
          <mxGeometry x="140" y="365" width="60" height="30" as="geometry" />
        </mxCell>
      </root>
    </mxGraphModel>
  </diagram>
</mxfile>
